<svg id="Livello_1" data-name="Livello 1" xmlns="http://www.w3.org/2000/svg" viewBox="0 0 1012.54443 379.41943">
  <defs>
    <style>
      .cls-1 {
        fill: #f5a800;
      }

      .cls-2 {
        font-size: 86.98881px;
        font-family: ArialMT, Arial;
        letter-spacing: 0.02em;
      }

      .cls-2, .cls-3, .cls-4 {
        fill: #fff;
      }

      .cls-3 {
        font-size: 154.91158px;
        font-family: ArialNarrow-Bold, Arial Narrow;
        font-weight: 700;
        letter-spacing: 0.05em;
      }

      .cls-4 {
        font-size: 95.3302px;
        font-family: ArialNarrow, Arial Narrow;
        letter-spacing: 0.074em;
      }
    </style>
  </defs>
  <g>
    <g>
      <path class="cls-1" d="M889.06258,664.00294l-9.54843,11.3256-2.96974-2.57815L886.41,661.75423c-1.55644-1.44773-2.75231-2.75231-4.271-4.10029l2.20214-2.20544c3.75846,3.55342,7.06673,6.30573,11.21461,9.645l-1.907,2.4306C892.13774,666.33924,890.5846,665.20222,889.06258,664.00294ZM869.9281,635.83247l-15.48473,9.04258c.55914,1.08386,1.15259,2.35743,1.83271,3.40142l15.51575-9.06587C871.03411,637.84388,870.61141,637.11388,869.9281,635.83247Zm9.94,14.44086-8.387,7.24861,4.27114-12.425c-.75771-1.06386-1.10272-1.806-1.89485-2.78445l-15.03419,10.20061c.66785,1.00957,1.491,1.94143,2.20543,2.98542l9.03917-6.26244-4.24,12.51818a22.6701,22.6701,0,0,0,2.516,2.93543l13.9083-11.928A28.92271,28.92271,0,0,1,879.86812,650.27333Zm20.40805,22.21634c2.43957,1.329,4.83131,2.71471,7.50273,3.98044l1.59972-2.65143a93.36777,93.36777,0,0,1-10.28173-6.25573l-10.20516,14.97989c3.86729,2.56271,7.40844,4.70271,11.38444,6.998l1.6463-2.64484-8.23045-4.85016,2.779-3.90614,5.45145,3.27714,1.58529-2.54715c-1.75058-.96287-3.5733-2.07343-5.48246-3.24272Zm50.47668-55.83826A25.66382,25.66382,0,1,1,976.365,591.00809,25.726,25.726,0,0,1,950.75285,616.65141Zm.31614-8.48116a16.98669,16.98669,0,0,0,4.189-33.46549c-.09315-.76544-.29956-4.32215-.29956-4.32215h-8.6009s-.19641,3.864-.26412,4.63273a16.7796,16.7796,0,0,0-11.9579,16.09818A17.09764,17.09764,0,0,0,951.069,608.17025ZM913.4012,494.15845v-.84212a8.7164,8.7164,0,0,1,8.1373-8.835,8.89383,8.89383,0,0,1,9.73918,8.11617v.71886a9.05485,9.05485,0,0,1-8.247,9.03042A8.94978,8.94978,0,0,1,913.4012,494.15845Zm3.28157-.31842a5.71894,5.71894,0,0,0,6.14589,5.2573,5.78482,5.78482,0,0,0,5.29616-5.781c.10882-.15188,0-.32615,0-.528a5.62078,5.62078,0,0,0-6.22916-5.15643,5.47633,5.47633,0,0,0-5.21289,5.68444Zm37.33279,4.43415c-1.50657-.01556-2.20544-.01556-3.682-.01556l4.46961-9.27216,4.05814-8.42232,4.02258.416,2.11228,8.00632,2.91987,10.76316a28.02012,28.02012,0,0,0-3.68087-.528l-1.0407-3.37359a66.41716,66.41716,0,0,0-7.517-.649Zm2.982-6.10374c1.95688.09316,3.774.31059,5.60674.5713l-.96287-3.75528-1.21155-3.86389-1.82158,3.86389Zm-17.86545-8.00313,1.58858,14.68158,3.85185-.40385-1.50771-14.57275,5.82985-.36057-.222-3.27044a138.97216,138.97216,0,0,0-15.64105,1.59972l.43486,3.10629Zm.61015,198.75939-1.30459,10.95844-5.26514-12.01788c-1.23586-.24072-2.00357-.55914-3.24715-.75771l-4.13017,17.72231c1.27244.34171,2.49944.47815,3.82061.70671l2.21-10.883,5.3383,12.12546a22.33874,22.33874,0,0,0,3.99157.528l1.97244-18.30463A29.92728,29.92728,0,0,1,939.74226,682.9267ZM1043.834,644.87505l-13.16718-7.2486-1.68071,3.033,15.79531,8.81731,6.08829-10.91074-2.718-1.45215Zm-19.849,2.65257,17.92316,5.8863c-.4227.53143-.75771,1.04058-1.13384,1.57644a7.42189,7.42189,0,0,0-.93186,1.33571l-3.1373-1.12942-4.89231,6.11056,1.786,2.8c-.73.83087-1.55314,1.73172-2.485,2.65143l-7.101-11.7683-2.62155-4.33772Zm2.03469,4.10358,2.12774,3.35916,1.94142,3.38585,2.62474-3.38585.68342-.84315ZM1007.188,675.58483a9.729,9.729,0,0,1,1.19928,4.48414,9.09685,9.09685,0,0,1-.77328,3.66315,9.79636,9.79636,0,0,1-3.80515,4.16243,8.95407,8.95407,0,0,1-12.20759-3.33928,5.55547,5.55547,0,0,0-.37273-.82315,11.43991,11.43991,0,0,1-.86972-3.66315,9.02023,9.02023,0,0,1,16.82919-4.48414Zm-2.028,4.48414a6.02067,6.02067,0,0,0-.792-2.97315A5.76616,5.76616,0,0,0,993.6358,680.069a6.15954,6.15954,0,0,0,.8387,2.85773,4.4365,4.4365,0,0,0,.62128.86756,5.64674,5.64674,0,0,0,7.1333,1.18372,5.46758,5.46758,0,0,0,1.57973-1.18372A6.05889,6.05889,0,0,0,1005.16,680.069Zm8.651-21.41319,7.45616,8.03744-12.51932-3.69314c-1.04069.79213-1.73956,1.0683-2.65586,1.87259l10.88733,14.63716c.932-.72114,1.89486-1.603,2.76458-2.34528l-6.61187-8.80617,12.63916,3.80515a21.48055,21.48055,0,0,0,2.96644-2.67472l-12.61247-13.32917C1015.45727,656.88964,1014.68069,657.84808,1013.811,658.65578ZM1094,591.11352a36.30645,36.30645,0,0,1-.264,4.68271l-.04657.36159-.38829.19755a46.05777,46.05777,0,0,1-21.83692,5.90187c-.18641.99844-1.04069,8.12287-1.18814,9.1246a44.97573,44.97573,0,0,1,19.4529,11.27687l.20187.31728v.32615a37.2148,37.2148,0,0,1-2.485,9.00816l-.12428.38487-.36159.05885a44.71053,44.71053,0,0,1-22.53147.04987c-.3617.93186-3.1373,7.55157-3.41687,8.51456,6.58529,4.16232,12.40946,9.88675,15.6866,15.99389l.17086.3416-.10872.35727a38.014,38.014,0,0,1-4.675,8.06073l-.1863.31843h-.43487a45.02008,45.02008,0,0,1-21.75932-5.82872c-.62128.81985-5.203,6.87372-5.82429,7.688a43.74631,43.74631,0,0,1,11.167,19.58934l.10871.3617-.20527.25287a42.58788,42.58788,0,0,1-6.55086,6.64743l-.24846.213-.517-.101a46.38363,46.38363,0,0,1-19.48732-11.279c-.82315.62128-6.50759,5.05873-7.34744,5.68785a45.89878,45.89878,0,0,1,5.84087,21.24347v.96287l-.4193.23629a37.623,37.623,0,0,1-8.06187,4.72157l-.24844.10531-.415-.13644a46.89833,46.89833,0,0,1-15.924-15.97389c-.96287.42373-7.87431,3.38142-8.82173,3.79742a52.14,52.14,0,0,1,1.61528,11.38445,43.29378,43.29378,0,0,1-1.61528,11.20576l-.04658.34614-.37272.20186a49.43988,49.43988,0,0,1-8.93046,2.403l-.4227.05771-.2297-.29071a43.98671,43.98671,0,0,1-11.38445-19.515c-.93186.06987-8.09174,1.04058-9.10131,1.25029a44.43027,44.43027,0,0,1-5.964,21.78591l-.20187.32285-.41929.0543a37.35043,37.35043,0,0,1-9.179,0l-.33727-.0543-.23856-.32285a46.17041,46.17041,0,0,1-5.90074-21.78591c-1.07171-.10429-8.61545-1.18042-9.66159-1.25029a45.10265,45.10265,0,0,1-11.229,19.48846l-.27412.25958-.42486-.06214a42.77131,42.77131,0,0,1-8.94489-2.5117l-.29615-.14416-.12314-.315a39.759,39.759,0,0,1-1.58086-11.23586,44.78717,44.78717,0,0,1,1.50315-11.27233c-.963-.416-7.486-3.0597-8.43345-3.48241a45.15474,45.15474,0,0,1-16.01388,16.0316l-.32615.18313-.38828-.10542a47.6869,47.6869,0,0,1-8.0763-4.69044l-.264-.264v-.73329a46.46506,46.46506,0,0,1,5.79316-21.47317c-.80758-.62787-6.89587-5.25287-7.73458-5.87745a45.41011,45.41011,0,0,1-19.53833,11.18258l-.35387.10872-.37613-.24527a47.53931,47.53931,0,0,1-6.492-6.55745l-.2297-.37284.10542-.36159a45.49278,45.49278,0,0,1,11.27573-19.4696c-.61355-.82985-5.21857-6.79829-5.87086-7.6946a43.95034,43.95034,0,0,1-21.76046,5.82417h-.37273l-.24844-.24186a45.32217,45.32217,0,0,1-4.675-8.12275l-.15529-.36841.15529-.32614a45.7042,45.7042,0,0,1,15.95061-15.8962c-.43043-1.01729-3.246-7.68471-3.72745-8.62328a45.38925,45.38925,0,0,1-22.56248,0l-.33069-.1053-.20187-.3107a47.49615,47.49615,0,0,1-2.37186-8.96488l-.07316-.43156.244-.32274a46.18889,46.18889,0,0,1,19.5539-11.36c-.08214-1.054-1.18485-8.63317-1.29357-9.68045a44.86975,44.86975,0,0,1-21.88349-5.78214l-.3107-.20186-.031-.42373a37.49985,37.49985,0,0,1-.21743-4.62842,39.20341,39.20341,0,0,1,.21743-4.63932l.031-.42384.3107-.16642a45.36519,45.36519,0,0,1,21.88349-5.832c.15972-1.03729,1.0917-8.40687,1.21143-9.40087a46.07761,46.07761,0,0,1-19.58047-11.28346l-.2063-.24844.071-.39613a34.623,34.623,0,0,1,2.445-8.9693l.11314-.3416.3683-.10542c6.79159-2.00357,15.00329-1.94472,22.55146-.09327.4193-.91959,3.17285-7.56373,3.58772-8.561a45.69975,45.69975,0,0,1-15.98832-15.96277l-.17972-.39169.17972-.37272a48.70692,48.70692,0,0,1,4.60387-7.96417l.24856-.31843h.42373a44.999,44.999,0,0,1,21.75933,5.832c.63343-.761,5.26173-7.01243,5.88631-7.8433a45.17356,45.17356,0,0,1-11.20132-19.585l-.07771-.29831.14314-.3074a47.63785,47.63785,0,0,1,6.66288-6.60847l.33841-.20641.31059.06214a45.09011,45.09011,0,0,1,19.5573,11.30345c.80429-.63673,6.3056-4.88015,7.12546-5.498a44.19057,44.19057,0,0,1-5.90188-21.21688v-1.03172l.345-.24515a39.2911,39.2911,0,0,1,8.04971-4.6283l.25958-.16756.416.183a45.971,45.971,0,0,1,15.93618,15.9163c.963-.36613,8.12287-3.47242,9.10017-3.864a44.091,44.091,0,0,1-1.45874-11.34116,38.947,38.947,0,0,1,1.522-11.1869l.05-.43054.36932-.09759a44.42373,44.42373,0,0,1,8.86843-2.41843l.43486-.05544.315.27287a45.23325,45.23325,0,0,1,11.32231,19.57275c1.05057-.10542,8.56773-1.05285,9.57843-1.23472a44.92918,44.92918,0,0,1,5.964-21.736l.1553-.32285.38385-.10429a45.16,45.16,0,0,1,9.27659,0l.34171.10429.21743.32285a42.9037,42.9037,0,0,1,5.8553,21.66617c1.13373.25174,8.48,1.19917,9.52515,1.30459a45.47779,45.47779,0,0,1,11.3799-19.53833l.233-.25185.34171.10428a35.49338,35.49338,0,0,1,9.02031,2.41174l.29843.11541.12427.42385a38.19417,38.19417,0,0,1,1.55315,11.07818,50.52674,50.52674,0,0,1-1.55315,11.41886c.93187.38045,8.07732,3.3703,9.07132,3.7863a45.03,45.03,0,0,1,15.85644-15.9163l.35715-.183.37273.16756a40.64973,40.64973,0,0,1,7.99973,4.67817l.314.19528v.963a44.85841,44.85841,0,0,1-5.85859,21.28561c.792.61788,6.69389,5.234,7.57918,5.914a44.33058,44.33058,0,0,1,19.585-11.2446l.31059-.17086.31058.32615a38.70916,38.70916,0,0,1,6.51986,6.60415l.29843.31058-.12758.35727a45.33754,45.33754,0,0,1-11.30345,19.5539c.62128.85086,5.06317,6.70173,5.74658,7.54487a45.79645,45.79645,0,0,1,21.85248-5.72772h.32615l.2297.31387a38.90974,38.90974,0,0,1,4.66272,7.96429l.233.45042-.233.3416a46.585,46.585,0,0,1-15.96617,15.89188c.40044,1.00956,3.10629,7.6813,3.61874,8.61316a44.917,44.917,0,0,1,22.43945,0l.40714.081.15529.39158a42.45107,42.45107,0,0,1,2.40731,9.01373l.05884.345-.27628.27627a44.43649,44.43649,0,0,1-19.54605,11.31788c.14745,1.02945,1.07943,8.30918,1.25017,9.34646a45.50144,45.50144,0,0,1,21.77489,5.87415l.38829.2297.04657.3683A35.31461,35.31461,0,0,1,1094,591.11352ZM878.93614,507.60519l11.75729,13.09618c1.64629,1.76728,3.45344,1.54985,5.82973-.31059a88.8239,88.8239,0,0,1,108.63681,0c2.34528,1.73173,4.10028,2.07787,5.82428.31059l11.76161-13.09618c1.33241-1.44885,1.33241-3.4447-1.21474-5.58015-19.72588-15.356-44.06337-24.8312-70.82371-24.8312a113.52032,113.52032,0,0,0-70.66514,24.90106C877.50728,504.16049,877.62384,506.15634,878.93614,507.60519Zm.79543,55.07828c-1.29243-.8386-2.67471-1.79829-3.80515-1.29686-.91959.27957-1.58745,1.24256-2.069,2.80672-5.51358,18.92159-5.51358,34.96206,0,53.6351.37284,1.21484.79213,2.42627,1.89485,2.73356.90858.376,2.23986,0,3.9793-1.20042l36.4032-24.79677a4.41726,4.41726,0,0,0,2.1743-3.49786,4.48372,4.48372,0,0,0-2.1743-3.59988Zm7.96429-21.69821c.17085,1.32787,1.67731,2.00345,2.99757,2.62473l39.66681,19.26762a4.63776,4.63776,0,0,0,4.24.13212,4.54867,4.54867,0,0,0,1.94257-3.68872l3.19944-44.00123c.17528-2.12341-.12531-3.37029-.88529-4.02258-.83871-.72227-2.08116-.52029-3.27714-.29956-19.0102,4.57059-32.86409,12.60474-46.51725,26.84691C887.95986,539.0904,887.4473,540.13871,887.69586,540.98526Zm.57459,100.61265a4.34455,4.34455,0,0,0,1.47555,2.69142c13.65747,14.36645,27.49148,22.36061,46.4851,26.81806,1.21143.36943,2.40844.55244,3.24715-.10872.85859-.64014,1.10272-1.96028.96287-4.03815,0-.06543-3.23045-44.09324-3.23045-44.09324a4.31377,4.31377,0,0,0-1.94142-3.61442,4.48628,4.48628,0,0,0-4.24.0267L891.40786,638.566c-1.38229.64457-2.88113,1.37014-3.09072,2.668C888.31714,641.31845,888.27045,641.4859,888.27045,641.59791Zm62.4824-22.1742a28.45165,28.45165,0,1,0-28.42221-28.41562A28.44284,28.44284,0,0,0,950.75285,619.42371Zm12.02231,50.93482c.66785.52813,1.77057.68342,3.46344.26072,18.94818-4.54731,32.84864-12.577,46.39194-26.78807.8077-.93527,1.68959-1.89815,1.42557-2.96656-.24515-1.025-1.11487-1.95358-2.96314-2.82331L971.3639,618.7637a4.58546,4.58546,0,0,0-4.17788-.07771,4.47541,4.47541,0,0,0-1.988,3.73086l-3.215,43.97352C961.952,667.83025,961.78116,669.47325,962.77516,670.35853Zm59.2374-51.25324c1.177.76442,2.54714,1.693,3.78959,1.26142.83871-.25515,1.56871-1.18042,2.03469-2.84557,5.56017-18.85162,5.56017-34.95422,0-53.57955a4.232,4.232,0,0,0-1.86384-2.81558c-.994-.35284-2.23644.0543-4.02258,1.26244l-36.42194,24.76791a4.33284,4.33284,0,0,0-2.12773,3.57671,4.2844,4.2844,0,0,0,2.12773,3.55216Zm-8.03074-78.82231a3.90776,3.90776,0,0,0-1.47555-2.74572c-13.531-14.312-27.42821-22.31847-46.48953-26.85361-1.06716-.27617-2.30972-.528-3.13287.202-.85416.6833-1.10271,2.00345-.93186,3.9793l3.14173,44.09881a4.47413,4.47413,0,0,0,1.968,3.66543,4.42808,4.42808,0,0,0,4.209-.16756l39.7135-19.16561c1.27357-.61787,2.718-1.29345,2.99757-2.64916A.92657.92657,0,0,0,1013.98182,540.283ZM844.40906,618.98442l16.89917-4.90787a4.06808,4.06808,0,0,0,2.76457-4.19344c-6.06829-31.48191,1.6463-57.00425,20.09747-77.46342a3.88229,3.88229,0,0,0,.27958-5.92846l-12.2853-12.35187c-1.19587-1.36672-3.367-1.36672-5.22629.53256-23.55433,24.78791-35.44679,62.82843-26.72264,101.71878C840.69706,618.25443,842.1725,619.62558,844.40906,618.98442Zm210.126,9.048-16.9446-5.78645c-.88529-.32956-3.19943-.32956-4.41087,2.65245a88.973,88.973,0,0,1-164.89789-.51245,3.43188,3.43188,0,0,0-4.25557-2.14l-16.85135,5.78645a3.20772,3.20772,0,0,0-1.97357,4.624,113.50152,113.50152,0,0,0,105.55165,72.06173c47.82194,0,89.16731-30.02635,105.7735-72.24043A3.13966,3.13966,0,0,0,1054.53505,628.03245Zm-19.5849-113.53138c-1.66186-2.03129-4.41087-1.72843-5.203-.3107l-12.25088,12.30086a3.87852,3.87852,0,0,0,.24413,5.92846c18.48332,20.45917,26.20234,45.92709,20.14518,77.46342a4.02747,4.02747,0,0,0,2.78,4.19344l16.92916,4.90787c2.252.64116,3.69644-.73,4.17788-2.65915C1070.48566,577.50035,1058.55764,539.33112,1034.95015,514.50107Zm-39.45063-4.59059,3.89842-7.50829,10.51461-4.889c-1.10272-.79214-2.29859-1.34787-3.41244-2.07787l-7.242,3.30145-1.33559-7.86761c-1.5177-.71784-2.423-1.03183-4.0027-1.66856l2.109,11.44216-3.89955,7.41616ZM975.79034,680.20211c-5.24959,1.14929-9.28762,2.10331-14.49062,2.912l.48144,3.02085c1.92586-.30285,3.68871-.53244,5.71556-.78759l2.62473,14.55605,3.864-.72988-3.134-14.514c1.988-.49257,3.82072-.994,5.79316-1.45556Zm-51.54827,2.54714v.98287c-.2807,2.40287-1.91143,4.84573-4.55071,5.15189l.61015,8.39471a23.74427,23.74427,0,0,1-3.92273-1.24256l-.1353-7.8976L912.6912,686.621l-2.87772,6.969a26.37275,26.37275,0,0,1-3.46344-1.31572l3.64986-8.48.43486-1.045,2.96644-6.998,8.0763,3.11844A4.28,4.28,0,0,1,924.24207,682.74925Zm-3.387,0a1.503,1.503,0,0,0-.93072-1.19269l-4.52073-1.66515-1.025,2.85784-.35727,1.045-.03.06543,4.11585,1.54088c1.13373.50143,2.21986-.50359,2.61371-1.60631A1.50908,1.50908,0,0,0,920.85508,682.74925Zm54.82654-181.16362c-1.44443-.4193-2.51488-.59674-4.10017-1.04717l2.92429-9.98659,2.13887-7.11785c3.09072.76771,6.02615,1.77057,8.96158,2.7247,1.66174.51029,2.547,2.39287,2.71788,4.39315.10872,2.72129-1.24131,5.67546-3.987,6.29345l1.06716,8.04517c-1.289-.53131-2.23645-.93186-3.66532-1.4943l-.932-7.03231-3.44788-1.05614Zm2.46955-9.41519,4.038,1.30129c1.10271.31388,2.5627-1.41341,2.5627-2.91986a1.41854,1.41854,0,0,0-1.21143-1.56541,31.99351,31.99351,0,0,0-4.14243-1.24245l-.82758,2.80786Zm-19.585,199.14427,3.89842,9.46631c-1.27357.05441-2.46512.182-3.60328.315l-1.207-3.0596-7.80115.21744-.89642,3.19943c-1.24688-.10871-2.41173-.14427-3.64986-.14427l3.36586-9.99432,2.39628-7.58259.11871-.24185,3.97715-.17756.20187.48155Zm-2.36072,3.44459-1.40228-3.44459-1.40887-3.72756-1.227,3.72756-1.21143,3.67315Zm23.856-16.07932,5.964,17.03787c1.16485-.40384,2.4073-.75657,3.58772-1.26914l-5.79316-16.96131C982.23249,678.02769,981.5059,678.24512,980.06147,678.68ZM893.44573,498.99634l-.99729-1.79386c2.62587-1.66515,5.45258-3.10958,8.17058-4.56616,3.206-1.76717,7.72561,2.51613,7.40832,6.36a4.05036,4.05036,0,0,1-.65342,1.91485l6.55541,4.76814c-1.23813.57788-2.17442,1.07159-3.64543,1.71173l-5.73556-4.19344L901.38,504.89049l3.37029,5.57572c-1.3047.831-2.09672,1.348-3.61885,2.23657Zm3.95829-.84643.497.84643,1.82158,3.15286,3.78516-1.988a1.4009,1.4009,0,0,0,.62128-1.16486c.0777-1.70843-1.16043-4.02258-2.951-2.94315C899.78031,496.78318,898.926,497.28791,897.404,498.14991Z" transform="translate(-81.45557 -412.90381)"/>
      <path class="cls-1" d="M1038.12743,633.10459l.19075-.3583a5.2022,5.2022,0,0,0,.45484-.98411.581.581,0,0,0-.04884-.406.67047.67047,0,0,0-.274-.284.59333.59333,0,0,0-.37829-.06544.67.67,0,0,0-.37272.18529,4.84916,4.84916,0,0,0-.56914.91857l-.19073.35613ZM1040.132,635.32l-4.35986-2.33528.47485-.88858c.446-.82985.69774-1.28913.75885-1.38785a1.92775,1.92775,0,0,1,.5446-.59243,1.16221,1.16221,0,0,1,.63014-.18414,1.34456,1.34456,0,0,1,.71227.172,1.31027,1.31027,0,0,1,.6423.741,1.58787,1.58787,0,0,1-.04987,1.08829,1.09555,1.09555,0,0,1,.33057-.21743,2.80794,2.80794,0,0,1,.49814-.11315c.0543-.01.28945-.02544.6966-.04214l1.16042-.04328-.588,1.09828-.90631-.01772a3.41553,3.41553,0,0,0-1.22586.13087,1.10579,1.10579,0,0,0-.51257.517l-.12314.22743,1.79386.95958Zm-4.50072-4.81142a3.824,3.824,0,0,0-.44929,1.8527,3.43787,3.43787,0,0,0,.56357,1.87929,3.74663,3.74663,0,0,0,3.29929,1.78387,3.53182,3.53182,0,0,0,1.87372-.56357,3.73927,3.73927,0,0,0,1.76387-3.2893,3.587,3.587,0,0,0-.568-1.87372,3.72789,3.72789,0,0,0-3.31258-1.76171,3.46811,3.46811,0,0,0-1.87486.568,3.86279,3.86279,0,0,0-1.29572,1.40444m-.81428-.4226a4.77531,4.77531,0,0,1,1.62413-1.74728,4.32991,4.32991,0,0,1,2.33074-.71557,4.64579,4.64579,0,0,1,4.11028,2.1943,4.39553,4.39553,0,0,1,.70671,2.32858,4.71956,4.71956,0,0,1-.55358,2.343,4.67064,4.67064,0,0,1-1.63969,1.74955,4.37,4.37,0,0,1-2.33075.7033,4.66934,4.66934,0,0,1-4.10369-2.20759,4.29437,4.29437,0,0,1-.69444-2.33755,4.78064,4.78064,0,0,1,.55029-2.31075" transform="translate(-81.45557 -412.90381)"/>
    </g>
    <text class="cls-2" transform="translate(0 74.6499)">Insubriæ-Malnate</text>
    <text class="cls-3" transform="translate(249.80371 221.84424)">Rotary</text>
    <text class="cls-4" transform="translate(524.25342 350.18701)">Club</text>
  </g>
</svg>
